<svg version="1.1" xmlns="http://www.w3.org/2000/svg" viewBox="0 0 746.4903934744224 550.22975332978" width="746.4903934744224" height="550.22975332978">
    <!-- svg-source:excalidraw -->

    <defs>
        <style class="style-fonts">
            @font-face {
            font-family: "Virgil";
            src: url("https://excalidraw.com/Virgil.woff2");
            }
            @font-face {
            font-family: "Cascadia";
            src: url("https://excalidraw.com/Cascadia.woff2");
            }
            @font-face {
            font-family: "Assistant";
            src: url("https://excalidraw.com/Assistant-Regular.woff2");
            }
        </style>

    </defs>
    <rect x="0" y="0" width="746.4903934744224" height="550.22975332978" fill="#ffffff"></rect><g transform="translate(12.7872206485074 355.6719868979176) rotate(0 22.34166717529297 12.5)"><text x="0" y="17.52" font-family="Virgil, Segoe UI Emoji" font-size="20px" fill="#000000" text-anchor="start" style="white-space: pre;" direction="ltr" dominant-baseline="alphabetic">User</text></g><g stroke-linecap="round"><g transform="translate(10 346.01906088793885) rotate(0 24.63471035906872 -21.936502105304584)" fill-rule="evenodd"><path d="M13.47 -38.64 C13.47 -38.64, 13.47 -38.64, 13.47 -38.64 M13.47 -38.64 C13.47 -38.64, 13.47 -38.64, 13.47 -38.64 M3.11 -14.53 C9.56 -21.95, 16.01 -29.37, 28.04 -43.2 M3.11 -14.53 C8.6 -20.84, 14.09 -27.16, 28.04 -43.2 M0.61 0.53 C13.25 -14, 25.89 -28.54, 35.39 -39.47 M0.61 0.53 C8.4 -8.42, 16.18 -17.37, 35.39 -39.47 M11.24 0.5 C19.17 -8.62, 27.1 -17.74, 40.77 -33.46 M11.24 0.5 C22.47 -12.41, 33.69 -25.33, 40.77 -33.46 M21.87 0.47 C29.56 -8.37, 37.24 -17.21, 44.84 -25.95 M21.87 0.47 C30.06 -8.95, 38.25 -18.37, 44.84 -25.95 M32.5 0.43 C38.35 -6.29, 44.19 -13.01, 48.91 -18.44 M32.5 0.43 C38.77 -6.78, 45.03 -13.98, 48.91 -18.44 M44.45 -1.11 C46.03 -2.93, 47.61 -4.76, 51.66 -9.41 M44.45 -1.11 C46.55 -3.54, 48.66 -5.96, 51.66 -9.41 M0 0 C0 0, 0 0, 0 0 M0 0 C0 0, 0 0, 0 0 M12.04 -0.13 C9.88 -2.01, 7.73 -3.88, 1.47 -9.32 M12.04 -0.13 C7.83 -3.79, 3.62 -7.46, 1.47 -9.32 M24.84 0.39 C19.2 -4.51, 13.56 -9.41, 2.95 -18.64 M24.84 0.39 C18.48 -5.13, 12.13 -10.65, 2.95 -18.64 M36.12 -0.4 C25.96 -9.24, 15.79 -18.08, 5.18 -27.3 M36.12 -0.4 C25.51 -9.63, 14.89 -18.85, 5.18 -27.3 M46.65 -1.84 C39.24 -8.29, 31.83 -14.73, 9.67 -33.99 M46.65 -1.84 C36.34 -10.81, 26.03 -19.77, 9.67 -33.99 M51.9 -7.88 C41.36 -17.05, 30.81 -26.21, 14.92 -40.03 M51.9 -7.88 C41.26 -17.14, 30.61 -26.39, 14.92 -40.03 M47.34 -22.45 C40.39 -28.49, 33.44 -34.53, 22.43 -44.1 M47.34 -22.45 C40.54 -28.36, 33.74 -34.27, 22.43 -44.1" stroke="#ced4da" stroke-width="1" fill="none"></path><path d="M0 0 C0.92 -4.85, 1.58 -21.76, 5.52 -29.07 C9.46 -36.38, 17.61 -43.34, 23.65 -43.87 C29.69 -44.4, 37.51 -39.05, 41.78 -32.24 C46.05 -25.43, 56.23 -8.39, 49.27 -3.02 C42.31 2.36, 8.21 -0.5, 0 0 M0 0 C0.92 -4.85, 1.58 -21.76, 5.52 -29.07 C9.46 -36.38, 17.61 -43.34, 23.65 -43.87 C29.69 -44.4, 37.51 -39.05, 41.78 -32.24 C46.05 -25.43, 56.23 -8.39, 49.27 -3.02 C42.31 2.36, 8.21 -0.5, 0 0" stroke="#000000" stroke-width="2" fill="none"></path></g></g><mask></mask><g stroke-linecap="round" transform="translate(22.453870836315673 279.3280131020824) rotate(0 12.612971703843186 11.036350240862845)"><path d="M2.98 3.91 C2.98 3.91, 2.98 3.91, 2.98 3.91 M2.98 3.91 C2.98 3.91, 2.98 3.91, 2.98 3.91 M2.45 16.71 C6.78 11.74, 11.1 6.76, 16.23 0.86 M2.45 16.71 C6.28 12.3, 10.11 7.9, 16.23 0.86 M8.49 21.96 C13.96 15.67, 19.42 9.38, 22.92 5.35 M8.49 21.96 C13.25 16.49, 18 11.02, 22.92 5.35 M4.36 19.37 C4.36 19.37, 4.36 19.37, 4.36 19.37 M4.36 19.37 C4.36 19.37, 4.36 19.37, 4.36 19.37 M17.91 20.55 C11.42 14.9, 4.93 9.26, 1.31 6.11 M17.91 20.55 C11.27 14.77, 4.63 9, 1.31 6.11 M23.92 15.17 C20 11.76, 16.08 8.35, 7.31 0.73 M23.92 15.17 C17.42 9.52, 10.92 3.87, 7.31 0.73" stroke="#ced4da" stroke-width="1" fill="none"></path><path d="M25.23 11.04 C25.23 11.68, 25.16 12.32, 25.03 12.95 C24.91 13.58, 24.71 14.21, 24.47 14.81 C24.22 15.41, 23.9 16, 23.54 16.55 C23.17 17.11, 22.74 17.64, 22.28 18.13 C21.81 18.62, 21.28 19.08, 20.72 19.49 C20.16 19.9, 19.55 20.27, 18.92 20.59 C18.29 20.91, 17.61 21.19, 16.93 21.41 C16.24 21.63, 15.52 21.79, 14.8 21.91 C14.08 22.02, 13.34 22.07, 12.61 22.07 C11.88 22.07, 11.14 22.02, 10.42 21.91 C9.7 21.79, 8.99 21.63, 8.3 21.41 C7.61 21.19, 6.94 20.91, 6.31 20.59 C5.67 20.27, 5.06 19.9, 4.51 19.49 C3.95 19.08, 3.42 18.62, 2.95 18.13 C2.48 17.64, 2.05 17.11, 1.69 16.55 C1.32 16, 1.01 15.41, 0.76 14.81 C0.51 14.21, 0.32 13.58, 0.19 12.95 C0.06 12.32, 0 11.68, 0 11.04 C0 10.4, 0.06 9.75, 0.19 9.12 C0.32 8.49, 0.51 7.86, 0.76 7.26 C1.01 6.66, 1.32 6.07, 1.69 5.52 C2.05 4.96, 2.48 4.43, 2.95 3.94 C3.42 3.45, 3.95 2.99, 4.51 2.58 C5.06 2.17, 5.67 1.8, 6.31 1.48 C6.94 1.16, 7.61 0.88, 8.3 0.67 C8.99 0.45, 9.7 0.28, 10.42 0.17 C11.14 0.06, 11.88 0, 12.61 0 C13.34 0, 14.08 0.06, 14.8 0.17 C15.52 0.28, 16.24 0.45, 16.93 0.67 C17.61 0.88, 18.29 1.16, 18.92 1.48 C19.55 1.8, 20.16 2.17, 20.72 2.58 C21.28 2.99, 21.81 3.45, 22.28 3.94 C22.74 4.43, 23.17 4.96, 23.54 5.52 C23.9 6.07, 24.22 6.66, 24.47 7.26 C24.71 7.86, 24.91 8.49, 25.03 9.12 C25.16 9.75, 25.19 10.72, 25.23 11.04 C25.26 11.36, 25.26 10.72, 25.23 11.04" stroke="#000000" stroke-width="2" fill="none"></path></g><g stroke-linecap="round" transform="translate(615.2499306953974 402.77024667022) rotate(0 24.52093898877024 45.77241944570437)"><path d="M0 0 C0 0, 0 0, 0 0 M0 0 C0 0, 0 0, 0 0 M0.13 12.04 C4.1 7.48, 8.06 2.92, 10.63 -0.03 M0.13 12.04 C3.83 7.79, 7.52 3.54, 10.63 -0.03 M0.27 24.08 C5.68 17.85, 11.09 11.62, 21.26 -0.07 M0.27 24.08 C5.66 17.88, 11.05 11.68, 21.26 -0.07 M-0.26 36.88 C11.34 23.54, 22.93 10.2, 31.89 -0.1 M-0.26 36.88 C7.09 28.43, 14.44 19.97, 31.89 -0.1 M-0.12 48.92 C9.36 38.01, 18.84 27.1, 42.52 -0.14 M-0.12 48.92 C9.53 37.81, 19.19 26.7, 42.52 -0.14 M0.01 60.96 C16.13 42.41, 32.25 23.87, 49.87 3.6 M0.01 60.96 C10.97 48.35, 21.92 35.75, 49.87 3.6 M0.14 73 C16.65 54.01, 33.16 35.02, 50 15.64 M0.14 73 C12.27 59.05, 24.4 45.09, 50 15.64 M0.28 85.04 C17.21 65.56, 34.14 46.08, 49.48 28.44 M0.28 85.04 C12.78 70.66, 25.28 56.28, 49.48 28.44 M5 91.8 C19.99 74.56, 34.98 57.32, 49.61 40.48 M5 91.8 C22.28 71.92, 39.57 52.04, 49.61 40.48 M14.98 92.52 C28.83 76.58, 42.68 60.65, 49.75 52.52 M14.98 92.52 C22.39 83.99, 29.8 75.47, 49.75 52.52 M25.61 92.48 C34.97 81.71, 44.33 70.94, 49.88 64.56 M25.61 92.48 C35.12 81.54, 44.64 70.59, 49.88 64.56 M36.24 92.45 C41.17 86.77, 46.11 81.09, 50.01 76.6 M36.24 92.45 C40.81 87.19, 45.38 81.93, 50.01 76.6 M46.87 92.42 C47.46 91.73, 48.05 91.05, 49.49 89.4 M46.87 92.42 C47.51 91.68, 48.14 90.94, 49.49 89.4 M-0.04 91.51 C-0.04 91.51, -0.04 91.51, -0.04 91.51 M-0.04 91.51 C-0.04 91.51, -0.04 91.51, -0.04 91.51 M12 91.37 C7.17 87.18, 2.34 82.98, -0.08 80.88 M12 91.37 C7.39 87.37, 2.78 83.36, -0.08 80.88 M24.04 91.24 C15.14 83.51, 6.25 75.78, -0.11 70.25 M24.04 91.24 C15.51 83.83, 6.99 76.42, -0.11 70.25 M36.83 91.76 C27.75 83.86, 18.66 75.97, -0.15 59.62 M36.83 91.76 C25.79 82.16, 14.74 72.56, -0.15 59.62 M48.87 91.63 C36.75 81.09, 24.62 70.55, -0.18 48.99 M48.87 91.63 C34.62 79.24, 20.37 66.85, -0.18 48.99 M49.59 81.66 C34.62 68.64, 19.66 55.63, -0.22 38.36 M49.59 81.66 C32.63 66.91, 15.67 52.16, -0.22 38.36 M49.56 71.03 C35.15 58.5, 20.73 45.97, -0.25 27.73 M49.56 71.03 C36.7 59.84, 23.83 48.66, -0.25 27.73 M49.52 60.4 C34.72 47.52, 19.91 34.65, -0.29 17.1 M49.52 60.4 C34.28 47.14, 19.03 33.89, -0.29 17.1 M49.49 49.77 C36.97 38.88, 24.44 27.99, -0.32 6.47 M49.49 49.77 C36.71 38.66, 23.94 27.55, -0.32 6.47 M49.46 39.14 C32.6 24.48, 15.75 9.83, 3.42 -0.88 M49.46 39.14 C38.07 29.24, 26.68 19.34, 3.42 -0.88 M49.42 28.51 C36.58 17.34, 23.73 6.18, 16.21 -0.36 M49.42 28.51 C41.49 21.61, 33.56 14.72, 16.21 -0.36 M49.39 17.88 C44.45 13.58, 39.51 9.29, 28.26 -0.49 M49.39 17.88 C43.69 12.93, 38 7.98, 28.26 -0.49 M49.35 7.25 C47.13 5.31, 44.9 3.37, 40.3 -0.63 M49.35 7.25 C46.53 4.79, 43.7 2.33, 40.3 -0.63" stroke="#ced4da" stroke-width="1" fill="none"></path><path d="M0 0 C12.95 0, 25.9 0, 49.04 0 M0 0 C11.11 0, 22.22 0, 49.04 0 M49.04 0 C49.04 29.36, 49.04 58.72, 49.04 91.54 M49.04 0 C49.04 36.01, 49.04 72.03, 49.04 91.54 M49.04 91.54 C32.44 91.54, 15.84 91.54, 0 91.54 M49.04 91.54 C39.03 91.54, 29.02 91.54, 0 91.54 M0 91.54 C0 55.62, 0 19.69, 0 0 M0 91.54 C0 71.93, 0 52.32, 0 0" stroke="#000000" stroke-width="2" fill="none"></path></g><g transform="translate(598.319645202629 507.33195612221016) rotate(0 69.0853741358967 16.448898603784926)"><text x="0" y="23.054776283064975" font-family="Virgil, Segoe UI Emoji" font-size="26.3182377660559px" fill="#000000" text-anchor="start" style="white-space: pre;" direction="ltr" dominant-baseline="alphabetic">LXD - API</text></g><g stroke-linecap="round"><g transform="translate(621.1512130038392 412.8974396433429) rotate(0 18.79938655805711 1.4210854715202004e-13)"><path d="M0 0 C6.27 0, 31.33 0, 37.6 0 M0 0 C6.27 0, 31.33 0, 37.6 0" stroke="#000000" stroke-width="2" fill="none"></path></g></g><mask></mask><g stroke-linecap="round"><g transform="translate(620.97148312611 421.3242732691848) rotate(0 18.79938655805711 1.4210854715202004e-13)"><path d="M0 0 C6.27 0, 31.33 0, 37.6 0 M0 0 C6.27 0, 31.33 0, 37.6 0" stroke="#000000" stroke-width="2" fill="none"></path></g></g><mask></mask><g stroke-linecap="round"><g transform="translate(620.9308407482682 429.7511068950278) rotate(0 18.79938655805711 1.4210854715202004e-13)"><path d="M0 0 C6.27 0, 31.33 0, 37.6 0 M0 0 C6.27 0, 31.33 0, 37.6 0" stroke="#000000" stroke-width="2" fill="none"></path></g></g><mask></mask><g stroke-linecap="round"><g transform="translate(620.9308407482682 438.17794052087027) rotate(0 18.79938655805711 1.4210854715202004e-13)"><path d="M0 0 C6.27 0, 31.33 0, 37.6 0 M0 0 C6.27 0, 31.33 0, 37.6 0" stroke="#000000" stroke-width="2" fill="none"></path></g></g><mask></mask><g stroke-linecap="round" transform="translate(515.819645202629 10) rotate(0 50.5 60.5)"><path d="M63.75 15.25 C68.51 20.15, 71.77 28.11, 88.25 45.75 M63.75 15.25 C72.95 26.51, 80.92 37, 88.25 45.75 M88.25 45.75 C102.35 61.84, 100.58 62.77, 88.25 76.25 M88.25 45.75 C99.71 59.28, 99.11 59.68, 88.25 76.25 M88.25 76.25 C83.25 83.15, 77.8 90.37, 63.75 105.75 M88.25 76.25 C80.38 86.75, 71.13 95.91, 63.75 105.75 M63.75 105.75 C49.82 120.9, 50.58 120.86, 38.25 105.75 M63.75 105.75 C50.84 122.79, 52.9 122.3, 38.25 105.75 M38.25 105.75 C29.74 96.54, 22.78 84.4, 12.75 76.25 M38.25 105.75 C29.32 93.68, 18.92 83.62, 12.75 76.25 M12.75 76.25 C1.08 60.22, -0.34 61.63, 12.75 45.75 M12.75 76.25 C-2.27 62.13, -0.15 60.88, 12.75 45.75 M12.75 45.75 C19.57 39.48, 27.58 30.92, 38.25 15.25 M12.75 45.75 C22.79 35.06, 32.98 22.73, 38.25 15.25 M38.25 15.25 C51.95 1.31, 49.42 -1.49, 63.75 15.25 M38.25 15.25 C52.51 1.75, 53.26 0.62, 63.75 15.25" stroke="#1e1e1e" stroke-width="1" fill="none"></path></g><g transform="translate(494.819645202629 123) rotate(0 69.75833129882812 25)"><text x="0" y="17.52" font-family="Virgil, Segoe UI Emoji" font-size="20px" fill="#1e1e1e" text-anchor="start" style="white-space: pre;" direction="ltr" dominant-baseline="alphabetic">LXD - BackPI</text><text x="0" y="42.519999999999996" font-family="Virgil, Segoe UI Emoji" font-size="20px" fill="#1e1e1e" text-anchor="start" style="white-space: pre;" direction="ltr" dominant-baseline="alphabetic">(GoLang)</text></g><g stroke-linecap="round" transform="translate(286.4727883543021 269.77024667022) rotate(0 26.29206198954654 49.07851571382008)"><path d="M0 0 C0 0, 0 0, 0 0 M0 0 C0 0, 0 0, 0 0 M0.13 12.04 C2.25 9.61, 4.36 7.17, 10.63 -0.03 M0.13 12.04 C3.09 8.65, 6.04 5.25, 10.63 -0.03 M0.27 24.08 C5.38 18.2, 10.49 12.32, 21.26 -0.07 M0.27 24.08 C5.7 17.83, 11.13 11.59, 21.26 -0.07 M-0.26 36.88 C6.33 29.3, 12.93 21.71, 31.89 -0.1 M-0.26 36.88 C7.51 27.95, 15.27 19.02, 31.89 -0.1 M-0.12 48.92 C15.06 31.46, 30.24 13.99, 42.52 -0.14 M-0.12 48.92 C15.71 30.71, 31.54 12.49, 42.52 -0.14 M0.01 60.96 C12.02 47.14, 24.03 33.33, 52.49 0.58 M0.01 60.96 C19.99 37.98, 39.97 14.99, 52.49 0.58 M0.14 73 C13.89 57.19, 27.64 41.37, 52.63 12.62 M0.14 73 C13.23 57.95, 26.31 42.9, 52.63 12.62 M0.28 85.04 C13.06 70.33, 25.84 55.63, 52.76 24.66 M0.28 85.04 C13.93 69.34, 27.58 53.63, 52.76 24.66 M-0.25 97.84 C18.65 76.1, 37.54 54.37, 52.89 36.7 M-0.25 97.84 C13.34 82.21, 26.93 66.58, 52.89 36.7 M9.73 98.56 C19.12 87.76, 28.51 76.95, 53.03 48.75 M9.73 98.56 C22.47 83.89, 35.22 69.23, 53.03 48.75 M20.36 98.52 C30.89 86.4, 41.43 74.28, 52.5 61.54 M20.36 98.52 C30.21 87.19, 40.07 75.85, 52.5 61.54 M30.99 98.49 C37.76 90.69, 44.54 82.9, 52.64 73.58 M30.99 98.49 C38.59 89.75, 46.19 81, 52.64 73.58 M41.62 98.45 C45.7 93.75, 49.79 89.05, 52.77 85.62 M41.62 98.45 C44.64 94.98, 47.66 91.5, 52.77 85.62 M52.25 98.42 C52.44 98.2, 52.63 97.98, 52.9 97.66 M52.25 98.42 C52.48 98.15, 52.71 97.89, 52.9 97.66 M-0.3 97.9 C-0.3 97.9, -0.3 97.9, -0.3 97.9 M-0.3 97.9 C-0.3 97.9, -0.3 97.9, -0.3 97.9 M12.5 98.42 C8.44 94.89, 4.38 91.37, -0.33 87.27 M12.5 98.42 C9.06 95.43, 5.63 92.45, -0.33 87.27 M24.54 98.29 C17.6 92.25, 10.66 86.22, -0.37 76.64 M24.54 98.29 C14.99 89.99, 5.44 81.69, -0.37 76.64 M36.58 98.15 C24.4 87.57, 12.22 76.98, 0.35 66.66 M36.58 98.15 C24.67 87.81, 12.77 77.46, 0.35 66.66 M48.62 98.02 C38.36 89.1, 28.1 80.18, 0.32 56.03 M48.62 98.02 C37.26 88.14, 25.89 78.27, 0.32 56.03 M53.11 91.33 C36.97 77.29, 20.82 63.26, 0.28 45.4 M53.11 91.33 C41.82 81.51, 30.54 71.7, 0.28 45.4 M53.08 80.7 C35.5 65.42, 17.92 50.14, 0.25 34.77 M53.08 80.7 C42.05 71.11, 31.02 61.52, 0.25 34.77 M53.04 70.07 C33.34 52.94, 13.63 35.81, 0.21 24.14 M53.04 70.07 C39.51 58.3, 25.98 46.54, 0.21 24.14 M53.01 59.44 C36.54 45.12, 20.06 30.8, 0.18 13.51 M53.01 59.44 C35.12 43.88, 17.22 28.33, 0.18 13.51 M52.97 48.81 C37.96 35.76, 22.95 22.71, 0.14 2.88 M52.97 48.81 C40.17 37.67, 27.36 26.54, 0.14 2.88 M52.94 38.18 C38.75 25.84, 24.55 13.5, 8.41 -0.53 M52.94 38.18 C43.45 29.93, 33.96 21.68, 8.41 -0.53 M52.91 27.55 C40.52 16.78, 28.14 6.02, 20.45 -0.66 M52.91 27.55 C46.02 21.56, 39.14 15.58, 20.45 -0.66 M52.87 16.92 C48.4 13.03, 43.92 9.14, 32.49 -0.8 M52.87 16.92 C45.27 10.31, 37.67 3.7, 32.49 -0.8 M52.84 6.29 C51.14 4.81, 49.44 3.33, 44.53 -0.93 M52.84 6.29 C50.7 4.43, 48.56 2.57, 44.53 -0.93" stroke="#ced4da" stroke-width="1" fill="none"></path><path d="M0 0 C19.97 0, 39.94 0, 52.58 0 M0 0 C20.05 0, 40.1 0, 52.58 0 M52.58 0 C52.58 35.08, 52.58 70.16, 52.58 98.16 M52.58 0 C52.58 31.17, 52.58 62.33, 52.58 98.16 M52.58 98.16 C36.42 98.16, 20.26 98.16, 0 98.16 M52.58 98.16 C39.76 98.16, 26.94 98.16, 0 98.16 M0 98.16 C0 74.14, 0 50.13, 0 0 M0 98.16 C0 59.72, 0 21.28, 0 0" stroke="#000000" stroke-width="2" fill="none"></path></g><g transform="translate(268.319645202629 381.88434425448014) rotate(0 54.93333435058594 17.636986167150354)"><text x="0" y="24.719999811877948" font-family="Virgil, Segoe UI Emoji" font-size="28.219177867440578px" fill="#000000" text-anchor="start" style="white-space: pre;" direction="ltr" dominant-baseline="alphabetic">HaProxy</text></g><g stroke-linecap="round"><g transform="translate(292.8003144063192 280.6289167053026) rotate(0 20.15724752531895 1.7053025658242404e-13)"><path d="M0 0 C6.72 0, 33.6 0, 40.31 0 M0 0 C6.72 0, 33.6 0, 40.31 0" stroke="#000000" stroke-width="2" fill="none"></path></g></g><mask></mask><g stroke-linecap="round"><g transform="translate(292.607602818529 289.66441213097517) rotate(0 20.15724752531895 1.7053025658242404e-13)"><path d="M0 0 C6.72 0, 33.6 0, 40.31 0 M0 0 C6.72 0, 33.6 0, 40.31 0" stroke="#000000" stroke-width="2" fill="none"></path></g></g><mask></mask><g stroke-linecap="round"><g transform="translate(292.5640248822149 298.69990755664895) rotate(0 20.15724752531895 1.7053025658242404e-13)"><path d="M0 0 C6.72 0, 33.6 0, 40.31 0 M0 0 C6.72 0, 33.6 0, 40.31 0" stroke="#000000" stroke-width="2" fill="none"></path></g></g><mask></mask><g stroke-linecap="round"><g transform="translate(292.5640248822149 307.73540298232217) rotate(0 20.15724752531895 1.7053025658242404e-13)"><path d="M0 0 C6.72 0, 33.6 0, 40.31 0 M0 0 C6.72 0, 33.6 0, 40.31 0" stroke="#000000" stroke-width="2" fill="none"></path></g></g><mask></mask><g stroke-linecap="round"><g transform="translate(632.5132561005399 177.48333740234375) rotate(0 10.474148497841497 107.25833129882812)"><path d="M-0.49 -0.37 C-1.53 14.12, -9.64 51.58, -5.42 87.3 C-1.19 123.02, 19.63 192.58, 24.84 213.95 M1.45 -1.6 C0.73 13.04, -7.39 52.62, -3.08 88.72 C1.23 124.81, 22.43 194.17, 27.32 214.97" stroke="#1e1e1e" stroke-width="1" fill="none"></path></g><g transform="translate(632.5132561005399 177.48333740234375) rotate(0 10.474148497841497 107.25833129882812)"><path d="M13 194.48 C17.71 200.85, 23.2 208.24, 27.32 214.97 M13 194.48 C17.1 199.41, 20.43 204.48, 27.32 214.97" stroke="#1e1e1e" stroke-width="1" fill="none"></path></g><g transform="translate(632.5132561005399 177.48333740234375) rotate(0 10.474148497841497 107.25833129882812)"><path d="M29.52 190.06 C28.18 197.99, 27.62 207, 27.32 214.97 M29.52 190.06 C29.46 196.25, 28.61 202.43, 27.32 214.97" stroke="#1e1e1e" stroke-width="1" fill="none"></path></g></g><mask></mask><g stroke-linecap="round"><g transform="translate(644.6496848031514 394) rotate(0 -21.915019800261234 -108.5)"><path d="M-0.08 -0.26 C-7.5 -19.28, -39.63 -78.42, -44.02 -114.59 C-48.41 -150.77, -29.56 -200.36, -26.41 -217.3 M-1.57 -1.44 C-9.22 -20.27, -41.35 -77.58, -45.07 -113.36 C-48.8 -149.15, -27.31 -198.64, -23.91 -216.15" stroke="#1e1e1e" stroke-width="1" fill="none"></path></g><g transform="translate(644.6496848031514 394) rotate(0 -21.915019800261234 -108.5)"><path d="M-22.3 -191.2 C-23.19 -200.08, -24.3 -209.55, -23.91 -216.15 M-22.3 -191.2 C-22.52 -198.5, -22.33 -205.73, -23.91 -216.15" stroke="#1e1e1e" stroke-width="1" fill="none"></path></g><g transform="translate(644.6496848031514 394) rotate(0 -21.915019800261234 -108.5)"><path d="M-38.71 -196 C-33.99 -203.22, -29.47 -211.04, -23.91 -216.15 M-38.71 -196 C-34.4 -202.08, -29.7 -207.99, -23.91 -216.15" stroke="#1e1e1e" stroke-width="1" fill="none"></path></g></g><mask></mask><g stroke-linecap="round"><g transform="translate(507.47682864456067 80.57939798488843) rotate(0 -101.82859172096585 89.21030100755576)"><path d="M0.29 -1.11 C-18.41 10.27, -78.42 38.54, -112.23 68.5 C-146.03 98.46, -187.22 160.29, -202.55 178.66 M-1.02 0.93 C-19.92 12.49, -79.85 40.22, -113.47 70.08 C-147.09 99.94, -187.6 161.79, -202.74 180.1" stroke="#1e1e1e" stroke-width="1" fill="none"></path></g><g transform="translate(507.47682864456067 80.57939798488843) rotate(0 -101.82859172096585 89.21030100755576)"><path d="M-195.51 156.17 C-199.44 162.31, -199.6 172.17, -202.74 180.1 M-195.51 156.17 C-197.42 163.37, -201.08 170.64, -202.74 180.1" stroke="#1e1e1e" stroke-width="1" fill="none"></path></g><g transform="translate(507.47682864456067 80.57939798488843) rotate(0 -101.82859172096585 89.21030100755576)"><path d="M-181.82 166.41 C-189.81 169.56, -194.01 176.39, -202.74 180.1 M-181.82 166.41 C-188.06 170.37, -196.1 174.36, -202.74 180.1" stroke="#1e1e1e" stroke-width="1" fill="none"></path></g></g><mask></mask><g stroke-linecap="round"><g transform="translate(321.54522538305116 261) rotate(0 96.60117155730711 -86.44416475891381)"><path d="M1.13 0.22 C17.55 -8.58, 65.44 -24.27, 97.35 -53.08 C129.26 -81.89, 176.8 -152.7, 192.58 -172.64 M0.26 -0.71 C16.63 -9.38, 64.57 -23.69, 96.44 -52.11 C128.31 -80.52, 175.61 -151.29, 191.48 -171.18" stroke="#1e1e1e" stroke-width="1" fill="none"></path></g><g transform="translate(321.54522538305116 261) rotate(0 96.60117155730711 -86.44416475891381)"><path d="M184.41 -147.21 C186.26 -151.99, 185.52 -158.01, 191.48 -171.18 M184.41 -147.21 C186.22 -155.42, 189.06 -162.99, 191.48 -171.18" stroke="#1e1e1e" stroke-width="1" fill="none"></path></g><g transform="translate(321.54522538305116 261) rotate(0 96.60117155730711 -86.44416475891381)"><path d="M170.65 -157.36 C175.26 -160.22, 177.3 -164.19, 191.48 -171.18 M170.65 -157.36 C176.78 -162.34, 184.03 -166.64, 191.48 -171.18" stroke="#1e1e1e" stroke-width="1" fill="none"></path></g></g><mask></mask><g stroke-linecap="round"><g transform="translate(602.819645202629 426.073243799334) rotate(0 -127.5 -47.53662189966701)"><path d="M0.04 -0.33 C-23.01 -16.2, -94.89 -79.5, -137.49 -94.7 C-180.09 -109.9, -235.86 -92.05, -255.57 -91.53 M-1.39 -1.54 C-24.63 -17.84, -95.63 -81.85, -138.17 -96.62 C-180.71 -111.4, -237.01 -91.22, -256.63 -90.2" stroke="#1e1e1e" stroke-width="1" fill="none"></path></g><g transform="translate(602.819645202629 426.073243799334) rotate(0 -127.5 -47.53662189966701)"><path d="M-234.98 -102.71 C-243.49 -97.21, -250.33 -94.38, -256.63 -90.2 M-234.98 -102.71 C-241.17 -99.32, -248.48 -95.6, -256.63 -90.2" stroke="#1e1e1e" stroke-width="1" fill="none"></path></g><g transform="translate(602.819645202629 426.073243799334) rotate(0 -127.5 -47.53662189966701)"><path d="M-232.01 -85.87 C-241.69 -86.61, -249.64 -90.01, -256.63 -90.2 M-232.01 -85.87 C-238.99 -87.57, -247.2 -88.92, -256.63 -90.2" stroke="#1e1e1e" stroke-width="1" fill="none"></path></g></g><mask></mask><g stroke-linecap="round"><g transform="translate(393.0648826389714 381.46974049342475) rotate(0 104.37738128182878 33.299892433177774)"><path d="M0.87 -0.27 C8.37 -0.37, 11.43 -11.1, 45.98 -0.02 C80.52 11.06, 181.1 54.91, 208.16 66.2 M-0.14 -1.46 C7.15 -1.97, 10.61 -13.32, 45.14 -1.9 C79.68 9.52, 179.88 55.83, 207.07 67.06" stroke="#1e1e1e" stroke-width="1" fill="none"></path></g><g transform="translate(393.0648826389714 381.46974049342475) rotate(0 104.37738128182878 33.299892433177774)"><path d="M182.12 65.48 C191.11 66.27, 201.75 65.5, 207.07 67.06 M182.12 65.48 C188.02 66.01, 193.14 65.71, 207.07 67.06" stroke="#1e1e1e" stroke-width="1" fill="none"></path></g><g transform="translate(393.0648826389714 381.46974049342475) rotate(0 104.37738128182878 33.299892433177774)"><path d="M188.98 49.81 C195.45 56.57, 203.5 61.72, 207.07 67.06 M188.98 49.81 C193.26 53.95, 196.82 57.21, 207.07 67.06" stroke="#1e1e1e" stroke-width="1" fill="none"></path></g></g><mask></mask><g stroke-linecap="round"><g transform="translate(52.61202893426855 300.1337372444384) rotate(0 114.60380813418021 -16.066868622219204)"><path d="M0.04 0.99 C19.56 -4.36, 79.45 -30.7, 117.56 -32.4 C155.67 -34.11, 210.01 -12.85, 228.7 -9.24 M-1.4 0.46 C17.95 -4.68, 78.62 -29.08, 116.8 -31.01 C154.98 -32.94, 208.77 -14.62, 227.67 -11.11" stroke="#1e1e1e" stroke-width="1" fill="none"></path></g><g transform="translate(52.61202893426855 300.1337372444384) rotate(0 114.60380813418021 -16.066868622219204)"><path d="M202.81 -8.46 C212.88 -8.78, 219.2 -11.1, 227.67 -11.11 M202.81 -8.46 C211.67 -9.02, 221.37 -9.39, 227.67 -11.11" stroke="#1e1e1e" stroke-width="1" fill="none"></path></g><g transform="translate(52.61202893426855 300.1337372444384) rotate(0 114.60380813418021 -16.066868622219204)"><path d="M206.92 -25.06 C215.56 -19.76, 220.48 -16.46, 227.67 -11.11 M206.92 -25.06 C214.31 -19.42, 222.47 -13.57, 227.67 -11.11" stroke="#1e1e1e" stroke-width="1" fill="none"></path></g></g><mask></mask><g stroke-linecap="round"><g transform="translate(277.819645202629 306.2060015039633) rotate(0 -111.98641875346362 0.26960411137633855)"><path d="M0.83 -0.95 C-11.07 -0.22, -33.79 3.53, -71.35 3.32 C-108.91 3.11, -199.13 -1.17, -224.51 -2.22 M-0.19 1.16 C-12.28 1.63, -34.92 1.82, -72.48 1.48 C-110.04 1.13, -200.44 -0.26, -225.56 -0.89" stroke="#1e1e1e" stroke-width="1" fill="none"></path></g><g transform="translate(277.819645202629 306.2060015039633) rotate(0 -111.98641875346362 0.26960411137633855)"><path d="M-201.91 -8.98 C-210.75 -6.94, -215.47 -4.81, -225.56 -0.89 M-201.91 -8.98 C-208.54 -6.54, -215.92 -3.93, -225.56 -0.89" stroke="#1e1e1e" stroke-width="1" fill="none"></path></g><g transform="translate(277.819645202629 306.2060015039633) rotate(0 -111.98641875346362 0.26960411137633855)"><path d="M-202.24 8.12 C-210.83 4.96, -215.44 1.91, -225.56 -0.89 M-202.24 8.12 C-208.82 5.39, -216.1 2.83, -225.56 -0.89" stroke="#1e1e1e" stroke-width="1" fill="none"></path></g></g><mask></mask><g transform="translate(396.819645202629 346) rotate(21.23399615295051 49.983333587646484 12.5)"><text x="0" y="17.52" font-family="Virgil, Segoe UI Emoji" font-size="20px" fill="#2f9e44" text-anchor="start" style="white-space: pre;" direction="ltr" dominant-baseline="alphabetic">Websocket</text></g><g transform="translate(346.19793352501836 186.32829053843298) rotate(319.36391174512255 34.28333282470703 12.5)"><text x="0" y="17.52" font-family="Virgil, Segoe UI Emoji" font-size="20px" fill="#1971c2" text-anchor="start" style="white-space: pre;" direction="ltr" dominant-baseline="alphabetic">HTTPS</text></g><g transform="translate(628.0871790880484 227.39834716145387) rotate(45.490524896813625 26.524999618530273 12.5)"><text x="0" y="17.52" font-family="Virgil, Segoe UI Emoji" font-size="20px" fill="#1971c2" text-anchor="start" style="white-space: pre;" direction="ltr" dominant-baseline="alphabetic">HTTp</text></g><g transform="translate(644.8363116149823 335.50000000000006) rotate(72.55281157671783 49.983333587646484 12.5)"><text x="0" y="17.52" font-family="Virgil, Segoe UI Emoji" font-size="20px" fill="#2f9e44" text-anchor="start" style="white-space: pre;" direction="ltr" dominant-baseline="alphabetic">Websocket</text></g><g transform="translate(676.819645202629 270) rotate(0 10.066666603088379 17.5)"><text x="0" y="24.528" font-family="Virgil, Segoe UI Emoji" font-size="28px" fill="#1e1e1e" text-anchor="start" style="white-space: pre;" direction="ltr" dominant-baseline="alphabetic">&amp;</text></g></svg>