<svg version="1.1" xmlns="http://www.w3.org/2000/svg" viewBox="0 0 624.319645202629 197" width="624.319645202629" height="197">
    <!-- svg-source:excalidraw -->

    <defs>
        <style class="style-fonts">
            @font-face {
            font-family: "Virgil";
            src: url("https://excalidraw.com/Virgil.woff2");
            }
            @font-face {
            font-family: "Cascadia";
            src: url("https://excalidraw.com/Cascadia.woff2");
            }
            @font-face {
            font-family: "Assistant";
            src: url("https://excalidraw.com/Assistant-Regular.woff2");
            }
        </style>

    </defs>
    <rect x="0" y="0" width="624.319645202629" height="197" fill="#ffffff"></rect><g stroke-linecap="round" transform="translate(254.81964520262898 10) rotate(0 50.5 60.5)"><path d="M63.75 15.25 C68.51 20.15, 71.77 28.11, 88.25 45.75 M63.75 15.25 C72.95 26.51, 80.92 37, 88.25 45.75 M88.25 45.75 C102.35 61.84, 100.58 62.77, 88.25 76.25 M88.25 45.75 C99.71 59.28, 99.11 59.68, 88.25 76.25 M88.25 76.25 C83.25 83.15, 77.8 90.37, 63.75 105.75 M88.25 76.25 C80.38 86.75, 71.13 95.91, 63.75 105.75 M63.75 105.75 C49.82 120.9, 50.58 120.86, 38.25 105.75 M63.75 105.75 C50.84 122.79, 52.9 122.3, 38.25 105.75 M38.25 105.75 C29.74 96.54, 22.78 84.4, 12.75 76.25 M38.25 105.75 C29.32 93.68, 18.92 83.62, 12.75 76.25 M12.75 76.25 C1.08 60.22, -0.34 61.63, 12.75 45.75 M12.75 76.25 C-2.27 62.13, -0.15 60.88, 12.75 45.75 M12.75 45.75 C19.57 39.48, 27.58 30.92, 38.25 15.25 M12.75 45.75 C22.79 35.06, 32.98 22.73, 38.25 15.25 M38.25 15.25 C51.95 1.31, 49.42 -1.49, 63.75 15.25 M38.25 15.25 C52.51 1.75, 53.26 0.62, 63.75 15.25" stroke="#1e1e1e" stroke-width="1" fill="none"></path></g><g transform="translate(12.7872206485074 118.67198689791758) rotate(0 22.34166717529297 12.5)"><text x="0" y="17.52" font-family="Virgil, Segoe UI Emoji" font-size="20px" fill="#000000" text-anchor="start" style="white-space: pre;" direction="ltr" dominant-baseline="alphabetic">User</text></g><g stroke-linecap="round"><g transform="translate(10 109.01906088793885) rotate(0 24.63471035906872 -21.936502105304584)" fill-rule="evenodd"><path d="M13.47 -38.64 C13.47 -38.64, 13.47 -38.64, 13.47 -38.64 M13.47 -38.64 C13.47 -38.64, 13.47 -38.64, 13.47 -38.64 M3.11 -14.53 C9.56 -21.95, 16.01 -29.37, 28.04 -43.2 M3.11 -14.53 C8.6 -20.84, 14.09 -27.16, 28.04 -43.2 M0.61 0.53 C13.25 -14, 25.89 -28.54, 35.39 -39.47 M0.61 0.53 C8.4 -8.42, 16.18 -17.37, 35.39 -39.47 M11.24 0.5 C19.17 -8.62, 27.1 -17.74, 40.77 -33.46 M11.24 0.5 C22.47 -12.41, 33.69 -25.33, 40.77 -33.46 M21.87 0.47 C29.56 -8.37, 37.24 -17.21, 44.84 -25.95 M21.87 0.47 C30.06 -8.95, 38.25 -18.37, 44.84 -25.95 M32.5 0.43 C38.35 -6.29, 44.19 -13.01, 48.91 -18.44 M32.5 0.43 C38.77 -6.78, 45.03 -13.98, 48.91 -18.44 M44.45 -1.11 C46.03 -2.93, 47.61 -4.76, 51.66 -9.41 M44.45 -1.11 C46.55 -3.54, 48.66 -5.96, 51.66 -9.41 M0 0 C0 0, 0 0, 0 0 M0 0 C0 0, 0 0, 0 0 M12.04 -0.13 C9.88 -2.01, 7.73 -3.88, 1.47 -9.32 M12.04 -0.13 C7.83 -3.79, 3.62 -7.46, 1.47 -9.32 M24.84 0.39 C19.2 -4.51, 13.56 -9.41, 2.95 -18.64 M24.84 0.39 C18.48 -5.13, 12.13 -10.65, 2.95 -18.64 M36.12 -0.4 C25.96 -9.24, 15.79 -18.08, 5.18 -27.3 M36.12 -0.4 C25.51 -9.63, 14.89 -18.85, 5.18 -27.3 M46.65 -1.84 C39.24 -8.29, 31.83 -14.73, 9.67 -33.99 M46.65 -1.84 C36.34 -10.81, 26.03 -19.77, 9.67 -33.99 M51.9 -7.88 C41.36 -17.05, 30.81 -26.21, 14.92 -40.03 M51.9 -7.88 C41.26 -17.14, 30.61 -26.39, 14.92 -40.03 M47.34 -22.45 C40.39 -28.49, 33.44 -34.53, 22.43 -44.1 M47.34 -22.45 C40.54 -28.36, 33.74 -34.27, 22.43 -44.1" stroke="#ced4da" stroke-width="1" fill="none"></path><path d="M0 0 C0.92 -4.85, 1.58 -21.76, 5.52 -29.07 C9.46 -36.38, 17.61 -43.34, 23.65 -43.87 C29.69 -44.4, 37.51 -39.05, 41.78 -32.24 C46.05 -25.43, 56.23 -8.39, 49.27 -3.02 C42.31 2.36, 8.21 -0.5, 0 0 M0 0 C0.92 -4.85, 1.58 -21.76, 5.52 -29.07 C9.46 -36.38, 17.61 -43.34, 23.65 -43.87 C29.69 -44.4, 37.51 -39.05, 41.78 -32.24 C46.05 -25.43, 56.23 -8.39, 49.27 -3.02 C42.31 2.36, 8.21 -0.5, 0 0" stroke="#000000" stroke-width="2" fill="none"></path></g></g><mask></mask><g stroke-linecap="round" transform="translate(22.453870836315673 42.32801310208242) rotate(0 12.612971703843186 11.036350240862845)"><path d="M2.98 3.91 C2.98 3.91, 2.98 3.91, 2.98 3.91 M2.98 3.91 C2.98 3.91, 2.98 3.91, 2.98 3.91 M2.45 16.71 C6.78 11.74, 11.1 6.76, 16.23 0.86 M2.45 16.71 C6.28 12.3, 10.11 7.9, 16.23 0.86 M8.49 21.96 C13.96 15.67, 19.42 9.38, 22.92 5.35 M8.49 21.96 C13.25 16.49, 18 11.02, 22.92 5.35 M4.36 19.37 C4.36 19.37, 4.36 19.37, 4.36 19.37 M4.36 19.37 C4.36 19.37, 4.36 19.37, 4.36 19.37 M17.91 20.55 C11.42 14.9, 4.93 9.26, 1.31 6.11 M17.91 20.55 C11.27 14.77, 4.63 9, 1.31 6.11 M23.92 15.17 C20 11.76, 16.08 8.35, 7.31 0.73 M23.92 15.17 C17.42 9.52, 10.92 3.87, 7.31 0.73" stroke="#ced4da" stroke-width="1" fill="none"></path><path d="M25.23 11.04 C25.23 11.68, 25.16 12.32, 25.03 12.95 C24.91 13.58, 24.71 14.21, 24.47 14.81 C24.22 15.41, 23.9 16, 23.54 16.55 C23.17 17.11, 22.74 17.64, 22.28 18.13 C21.81 18.62, 21.28 19.08, 20.72 19.49 C20.16 19.9, 19.55 20.27, 18.92 20.59 C18.29 20.91, 17.61 21.19, 16.93 21.41 C16.24 21.63, 15.52 21.79, 14.8 21.91 C14.08 22.02, 13.34 22.07, 12.61 22.07 C11.88 22.07, 11.14 22.02, 10.42 21.91 C9.7 21.79, 8.99 21.63, 8.3 21.41 C7.61 21.19, 6.94 20.91, 6.31 20.59 C5.67 20.27, 5.06 19.9, 4.51 19.49 C3.95 19.08, 3.42 18.62, 2.95 18.13 C2.48 17.64, 2.05 17.11, 1.69 16.55 C1.32 16, 1.01 15.41, 0.76 14.81 C0.51 14.21, 0.32 13.58, 0.19 12.95 C0.06 12.32, 0 11.68, 0 11.04 C0 10.4, 0.06 9.75, 0.19 9.12 C0.32 8.49, 0.51 7.86, 0.76 7.26 C1.01 6.66, 1.32 6.07, 1.69 5.52 C2.05 4.96, 2.48 4.43, 2.95 3.94 C3.42 3.45, 3.95 2.99, 4.51 2.58 C5.06 2.17, 5.67 1.8, 6.31 1.48 C6.94 1.16, 7.61 0.88, 8.3 0.67 C8.99 0.45, 9.7 0.28, 10.42 0.17 C11.14 0.06, 11.88 0, 12.61 0 C13.34 0, 14.08 0.06, 14.8 0.17 C15.52 0.28, 16.24 0.45, 16.93 0.67 C17.61 0.88, 18.29 1.16, 18.92 1.48 C19.55 1.8, 20.16 2.17, 20.72 2.58 C21.28 2.99, 21.81 3.45, 22.28 3.94 C22.74 4.43, 23.17 4.96, 23.54 5.52 C23.9 6.07, 24.22 6.66, 24.47 7.26 C24.71 7.86, 24.91 8.49, 25.03 9.12 C25.16 9.75, 25.19 10.72, 25.23 11.04 C25.26 11.36, 25.26 10.72, 25.23 11.04" stroke="#000000" stroke-width="2" fill="none"></path></g><g stroke-linecap="round" transform="translate(522.1854652041524 23.77024667021999) rotate(0 18.63417999847718 34.78380266382396)"><path d="M0 0 C0 0, 0 0, 0 0 M0 0 C0 0, 0 0, 0 0 M0.13 12.04 C4.1 7.48, 8.06 2.92, 10.63 -0.03 M0.13 12.04 C3.83 7.79, 7.52 3.54, 10.63 -0.03 M0.27 24.08 C5.68 17.85, 11.09 11.62, 21.26 -0.07 M0.27 24.08 C5.66 17.88, 11.05 11.68, 21.26 -0.07 M-0.26 36.88 C11.34 23.54, 22.93 10.2, 31.89 -0.1 M-0.26 36.88 C7.09 28.43, 14.44 19.97, 31.89 -0.1 M-0.12 48.92 C8.34 39.18, 16.8 29.45, 37.93 5.14 M-0.12 48.92 C8.49 39, 17.11 29.09, 37.93 5.14 M0.01 60.96 C12.31 46.81, 24.62 32.65, 38.06 17.19 M0.01 60.96 C8.37 51.34, 16.73 41.72, 38.06 17.19 M2.77 69.98 C14.5 56.49, 26.23 42.99, 38.19 29.23 M2.77 69.98 C11.39 60.07, 20.01 50.15, 38.19 29.23 M13.4 69.95 C21.75 60.34, 30.11 50.73, 37.67 42.02 M13.4 69.95 C19.56 62.85, 25.73 55.76, 37.67 42.02 M24.03 69.91 C28.66 64.59, 33.28 59.26, 37.8 54.06 M24.03 69.91 C29.36 63.77, 34.7 57.63, 37.8 54.06 M34.66 69.88 C35.96 68.37, 37.27 66.87, 37.94 66.1 M34.66 69.88 C35.36 69.07, 36.06 68.27, 37.94 66.1 M0.27 69.8 C0.27 69.8, 0.27 69.8, 0.27 69.8 M0.27 69.8 C0.27 69.8, 0.27 69.8, 0.27 69.8 M12.31 69.67 C7.99 65.91, 3.66 62.15, 0.24 59.17 M12.31 69.67 C8.3 66.19, 4.3 62.7, 0.24 59.17 M24.35 69.54 C18.89 64.79, 13.43 60.04, 0.2 48.54 M24.35 69.54 C18.47 64.42, 12.59 59.31, 0.2 48.54 M36.39 69.4 C22.16 57.03, 7.92 44.66, 0.17 37.91 M36.39 69.4 C21.97 56.87, 7.55 44.33, 0.17 37.91 M37.87 60.09 C22.79 46.98, 7.71 33.87, 0.13 27.28 M37.87 60.09 C23.47 47.57, 9.07 35.05, 0.13 27.28 M37.83 49.46 C23.94 37.37, 10.04 25.29, 0.1 16.65 M37.83 49.46 C24.52 37.88, 11.2 26.3, 0.1 16.65 M37.8 38.83 C28.53 30.77, 19.26 22.71, 0.06 6.02 M37.8 38.83 C26.53 29.03, 15.26 19.23, 0.06 6.02 M37.77 28.2 C29.56 21.06, 21.35 13.92, 4.56 -0.67 M37.77 28.2 C28.12 19.81, 18.47 11.42, 4.56 -0.67 M37.73 17.57 C31.61 12.24, 25.48 6.92, 17.35 -0.15 M37.73 17.57 C30.79 11.53, 23.85 5.5, 17.35 -0.15 M37.7 6.94 C35.29 4.85, 32.89 2.76, 29.39 -0.28 M37.7 6.94 C35.55 5.07, 33.41 3.21, 29.39 -0.28" stroke="#ced4da" stroke-width="1" fill="none"></path><path d="M0 0 C9.84 0, 19.68 0, 37.27 0 M0 0 C8.44 0, 16.88 0, 37.27 0 M37.27 0 C37.27 22.31, 37.27 44.62, 37.27 69.57 M37.27 0 C37.27 27.37, 37.27 54.74, 37.27 69.57 M37.27 69.57 C24.65 69.57, 12.04 69.57, 0 69.57 M37.27 69.57 C29.66 69.57, 22.05 69.57, 0 69.57 M0 69.57 C0 42.26, 0 14.96, 0 0 M0 69.57 C0 54.66, 0 39.76, 0 0" stroke="#000000" stroke-width="2" fill="none"></path></g><g transform="translate(509.319645202629 103.22975332978001) rotate(0 52.5 12.5)"><text x="0" y="17.52" font-family="Virgil, Segoe UI Emoji" font-size="20px" fill="#000000" text-anchor="start" style="white-space: pre;" direction="ltr" dominant-baseline="alphabetic">LXD - API</text></g><g stroke-linecap="round"><g transform="translate(526.6700225372828 31.466197336175696) rotate(0 14.286204665499099 1.1368683772161603e-13)"><path d="M0 0 C4.76 0, 23.81 0, 28.57 0 M0 0 C4.76 0, 23.81 0, 28.57 0" stroke="#000000" stroke-width="2" fill="none"></path></g></g><mask></mask><g stroke-linecap="round"><g transform="translate(526.5334405371299 37.86999511378406) rotate(0 14.286204665499099 1.1368683772161603e-13)"><path d="M0 0 C4.76 0, 23.81 0, 28.57 0 M0 0 C4.76 0, 23.81 0, 28.57 0" stroke="#000000" stroke-width="2" fill="none"></path></g></g><mask></mask><g stroke-linecap="round"><g transform="translate(526.5025552033907 44.27379289139333) rotate(0 14.286204665499099 1.1368683772161603e-13)"><path d="M0 0 C4.76 0, 23.81 0, 28.57 0 M0 0 C4.76 0, 23.81 0, 28.57 0" stroke="#000000" stroke-width="2" fill="none"></path></g></g><mask></mask><g stroke-linecap="round"><g transform="translate(526.5025552033907 50.67759066900214) rotate(0 14.286204665499099 1.1368683772161603e-13)"><path d="M0 0 C4.76 0, 23.81 0, 28.57 0 M0 0 C4.76 0, 23.81 0, 28.57 0" stroke="#000000" stroke-width="2" fill="none"></path></g></g><mask></mask><g transform="translate(235.81964520262898 137) rotate(0 69.75833129882812 25)"><text x="0" y="17.52" font-family="Virgil, Segoe UI Emoji" font-size="20px" fill="#1e1e1e" text-anchor="start" style="white-space: pre;" direction="ltr" dominant-baseline="alphabetic">LXD - BackPI</text><text x="0" y="42.519999999999996" font-family="Virgil, Segoe UI Emoji" font-size="20px" fill="#1e1e1e" text-anchor="start" style="white-space: pre;" direction="ltr" dominant-baseline="alphabetic">(GoLang)</text></g><g stroke-linecap="round"><g transform="translate(67.81964520262898 68) rotate(0 221.5 6.5)"><path d="M-0.7 1.06 C29.72 0.17, 135.12 -7.36, 182.05 -4.19 C228.99 -1.02, 237.64 20.39, 280.94 20.07 C324.24 19.76, 414.84 -1.69, 441.84 -6.08 M1.14 0.57 C31.44 -0.14, 134.11 -9.36, 181.13 -5.88 C228.16 -2.41, 239.88 21.81, 283.27 21.43 C326.66 21.05, 415.12 -3.66, 441.47 -8.16" stroke="#1e1e1e" stroke-width="1" fill="none"></path></g><g transform="translate(67.81964520262898 68) rotate(0 221.5 6.5)"><path d="M420.38 5.26 C427.54 1.96, 432.65 -3.41, 441.47 -8.16 M420.38 5.26 C426.89 1.56, 433.99 -3.72, 441.47 -8.16" stroke="#1e1e1e" stroke-width="1" fill="none"></path></g><g transform="translate(67.81964520262898 68) rotate(0 221.5 6.5)"><path d="M416.69 -11.44 C424.97 -10.35, 431.05 -11.35, 441.47 -8.16 M416.69 -11.44 C424.17 -10.05, 432.39 -10.22, 441.47 -8.16" stroke="#1e1e1e" stroke-width="1" fill="none"></path></g></g><mask></mask></svg>